# xmcd
#
# Track frame offsets:
# 150
# 17925
# 34387
# 56025
# 78938
# 100239
# 120489
# 138000
# 151425
# 164591
# 193939
# 215539
# 238114
# 256226
# 271039
# 286640
# 317963
#
# Disc length: 4492 seconds
#
# Revision: 0
# Processed by: cddbd v1.5PL3 Copyright (c) Steve Scherf et al.
# Submitted via: Audion 3.0.2 (http://www.panic.com/audion/)
#
DISCID=f0118a11
DTITLE=Blues Paradise - Blues Rock_vol.7
DYEAR=1900
DGENRE=
TTITLE0=Cry Of Love_Peace Pipe
TTITLE1=Michael Messer_Step Right Up
TTITLE2=Big Sugar_Ride Like Hall
TTITLE3=Blue Cheer_Nightmares
TTITLE4=Sunset Heights_Southern Star
TTITLE5=Lynyrd Skynyrd_Voodoo Lake
TTITLE6=Calvin Russel_Living At The End Of A Gun
TTITLE7=The Five Points Band_All Strung Out
TTITLE8=Michael Messer_King Guitar
TTITLE9=Walter Trout Band_Come Home
TTITLE10=Sunset Heights_Meet Your Maker
TTITLE11=Cry Of Love_Hand Me Down
TTITLE12=Big Sugar_How Many Times
TTITLE13=Calvin Russel_Behind The and Ball
TTITLE14=Michael Katon_Rock'n'Run
TTITLE15=Blue Cheer_Parchament Farm
TTITLE16=Walter Trout Band_One Way Street
EXTD=
EXTT0=
EXTT1=
EXTT2=
EXTT3=
EXTT4=
EXTT5=
EXTT6=
EXTT7=
EXTT8=
EXTT9=
EXTT10=
EXTT11=
EXTT12=
EXTT13=
EXTT14=
EXTT15=
EXTT16=
PLAYORDER=
